<svg viewBox="0 0 21 20" fill="none" xmlns="http://www.w3.org/2000/svg">
<g id="dots-vertical">
<g id="Icon">
<path d="M10.7996 10.8333C11.2599 10.8333 11.633 10.4602 11.633 9.99998C11.633 9.53974 11.2599 9.16665 10.7996 9.16665C10.3394 9.16665 9.96631 9.53974 9.96631 9.99998C9.96631 10.4602 10.3394 10.8333 10.7996 10.8333Z" fill="currentColor"/>
<path d="M10.7996 4.99998C11.2599 4.99998 11.633 4.62688 11.633 4.16665C11.633 3.70641 11.2599 3.33331 10.7996 3.33331C10.3394 3.33331 9.96631 3.70641 9.96631 4.16665C9.96631 4.62688 10.3394 4.99998 10.7996 4.99998Z" fill="currentColor"/>
<path d="M10.7996 16.6666C11.2599 16.6666 11.633 16.2935 11.633 15.8333C11.633 15.3731 11.2599 15 10.7996 15C10.3394 15 9.96631 15.3731 9.96631 15.8333C9.96631 16.2935 10.3394 16.6666 10.7996 16.6666Z" fill="currentColor"/>
<path d="M10.7996 10.8333C11.2599 10.8333 11.633 10.4602 11.633 9.99998C11.633 9.53974 11.2599 9.16665 10.7996 9.16665C10.3394 9.16665 9.96631 9.53974 9.96631 9.99998C9.96631 10.4602 10.3394 10.8333 10.7996 10.8333Z" stroke="currentColor" stroke-width="1.2" stroke-linecap="round" stroke-linejoin="round"/>
<path d="M10.7996 4.99998C11.2599 4.99998 11.633 4.62688 11.633 4.16665C11.633 3.70641 11.2599 3.33331 10.7996 3.33331C10.3394 3.33331 9.96631 3.70641 9.96631 4.16665C9.96631 4.62688 10.3394 4.99998 10.7996 4.99998Z" stroke="currentColor" stroke-width="1.2" stroke-linecap="round" stroke-linejoin="round"/>
<path d="M10.7996 16.6666C11.2599 16.6666 11.633 16.2935 11.633 15.8333C11.633 15.3731 11.2599 15 10.7996 15C10.3394 15 9.96631 15.3731 9.96631 15.8333C9.96631 16.2935 10.3394 16.6666 10.7996 16.6666Z" stroke="currentColor" stroke-width="1.2" stroke-linecap="round" stroke-linejoin="round"/>
</g>
</g>
</svg>
