<svg viewBox="0 0 32 32" fill="none" xmlns="http://www.w3.org/2000/svg">
<path d="M18.6666 3.02606V8.53345C18.6666 9.28019 18.6666 9.65355 18.8119 9.93877C18.9397 10.1897 19.1437 10.3936 19.3946 10.5215C19.6798 10.6668 20.0532 10.6668 20.7999 10.6668H26.3073M15.9999 24V16M11.9999 20H19.9999M18.6666 2.66669H11.7333C9.49304 2.66669 8.37294 2.66669 7.51729 3.10266C6.76464 3.48615 6.15272 4.09808 5.76923 4.85073C5.33325 5.70637 5.33325 6.82648 5.33325 9.06669V22.9334C5.33325 25.1736 5.33325 26.2937 5.76923 27.1493C6.15272 27.902 6.76464 28.5139 7.51729 28.8974C8.37294 29.3334 9.49304 29.3334 11.7333 29.3334H20.2666C22.5068 29.3334 23.6269 29.3334 24.4825 28.8974C25.2352 28.5139 25.8471 27.902 26.2306 27.1493C26.6666 26.2937 26.6666 25.1736 26.6666 22.9334V10.6667L18.6666 2.66669Z" stroke="currentColor" stroke-width="1.2" stroke-linecap="round" stroke-linejoin="round"/>
</svg>
