<svg width="16" height="16" viewBox="0 0 16 16" fill="none" xmlns="http://www.w3.org/2000/svg">
<g id="google">
<g id="Vector">
<path d="M15.2 8.16542C15.2 7.67599 15.1595 7.18391 15.0731 6.70242H8.14498V9.47499H12.1124C11.9478 10.3692 11.4188 11.1602 10.6442 11.6629V13.4619H13.0111C14.4011 12.2079 15.2 10.356 15.2 8.16542Z" fill="#4285F4"/>
<path d="M8.14511 15.2001C10.1261 15.2001 11.7968 14.5625 13.014 13.4619L10.647 11.6629C9.98848 12.1021 9.13832 12.3508 8.14781 12.3508C6.23158 12.3508 4.60682 11.0836 4.02386 9.3798H1.58133V11.2344C2.82823 13.6657 5.36792 15.2001 8.14511 15.2001Z" fill="#34A853"/>
<path d="M4.02115 9.38005C3.71347 8.48585 3.71347 7.51756 4.02115 6.62335V4.76879H1.58132C0.539539 6.80325 0.539545 9.1999 1.58133 11.2344L4.02115 9.38005Z" fill="#FBBC05"/>
<path d="M8.14511 3.64977C9.1923 3.6339 10.2044 4.02015 10.9628 4.72917L13.0599 2.67355C11.732 1.45129 9.96959 0.779308 8.14511 0.800473C5.36792 0.800473 2.82823 2.33485 1.58132 4.76879L4.02115 6.62335C4.60142 4.91695 6.22888 3.64977 8.14511 3.64977Z" fill="#EA4335"/>
</g>
</g>
</svg>
