<svg xmlns="http://www.w3.org/2000/svg" viewBox="0 0 16 16" fill="none">
  <path d="M8 10.6667C9.10457 10.6667 10 9.77123 10 8.66666C10 7.56209 9.10457 6.66666 8 6.66666C6.89543 6.66666 6 7.56209 6 8.66666C6 9.77123 6.89543 10.6667 8 10.6667Z" stroke="currentColor" stroke-width="1.2" stroke-linecap="round" stroke-linejoin="round"/>
  <path d="M2 7.04337C2 6.66046 2 6.46901 2.04935 6.2927C2.09307 6.13652 2.16491 5.98963 2.26135 5.85924C2.37022 5.71204 2.52135 5.5945 2.82359 5.35942L7.34513 1.84267C7.57935 1.6605 7.69646 1.56941 7.82577 1.5344C7.93987 1.50351 8.06013 1.50351 8.17423 1.5344C8.30354 1.56941 8.42065 1.6605 8.65487 1.84267L13.1764 5.35942C13.4787 5.5945 13.6298 5.71204 13.7386 5.85924C13.8351 5.98963 13.9069 6.13652 13.9506 6.2927C14 6.46901 14 6.66046 14 7.04337V11.8667C14 12.6134 14 12.9868 13.8547 13.272C13.7268 13.5229 13.5229 13.7268 13.272 13.8547C12.9868 14 12.6134 14 11.8667 14H4.13333C3.3866 14 3.01323 14 2.72801 13.8547C2.47713 13.7268 2.27316 13.5229 2.14532 13.272C2 12.9868 2 12.6134 2 11.8667V7.04337Z" stroke="currentColor" stroke-width="1.2" stroke-linecap="round" stroke-linejoin="round"/>
</svg>