<svg width="209" height="50" viewBox="0 0 209 50" fill="none" xmlns="http://www.w3.org/2000/svg">
<path d="M208.012 36.7969V41.8801L204.791 41.9994C201.577 42.1108 199.381 41.5539 198.204 40.3289C197.44 39.5493 197.058 38.3481 197.058 36.7253V20.712H193.431V15.8675H197.058V8.61261H203.788V15.8675H208.012V20.712H203.788V34.4581C203.788 35.5241 203.923 36.1923 204.194 36.4628C204.464 36.7173 205.292 36.8446 206.676 36.8446C206.883 36.8446 207.097 36.8446 207.32 36.8446C207.559 36.8287 207.79 36.8128 208.012 36.7969Z" fill="#15181E"/>
<path d="M187.993 15.6288V41.6414H181.096V15.6288H187.993ZM187.993 6.25V12.5264H181.096V6.25H187.993Z" fill="#15181E"/>
<path d="M176.41 41.6414H168.2L161.971 30.5204L159.155 33.4558V41.6414H152.473V6.58409H159.155V25.5327L167.627 15.7482H176.052L166.959 25.6998L176.41 41.6414Z" fill="#15181E"/>
<path d="M147.844 24.9599H140.875C140.748 23.9894 140.422 23.1144 139.897 22.3348C139.133 21.2847 137.948 20.7597 136.341 20.7597C134.05 20.7597 132.483 21.8973 131.639 24.1724C131.194 25.3815 130.971 26.9884 130.971 28.9931C130.971 30.9022 131.194 32.4375 131.639 33.599C132.451 35.7627 133.978 36.8446 136.222 36.8446C137.813 36.8446 138.942 36.415 139.61 35.5559C140.279 34.6967 140.684 33.583 140.827 32.2148H147.772C147.613 34.2831 146.865 36.24 145.529 38.0855C143.397 41.0607 140.239 42.5482 136.054 42.5482C131.87 42.5482 128.792 41.3073 126.819 38.8253C124.846 36.3434 123.86 33.1217 123.86 29.1601C123.86 24.6894 124.949 21.2131 127.129 18.7312C129.309 16.2493 132.316 15.0083 136.15 15.0083C139.411 15.0083 142.076 15.7402 144.145 17.2039C146.229 18.6676 147.462 21.2529 147.844 24.9599Z" fill="#15181E"/>
<path d="M99.1118 18.4448C100.91 16.1538 103.996 15.0083 108.371 15.0083C111.219 15.0083 113.749 15.5731 115.96 16.7027C118.172 17.8323 119.278 19.9642 119.278 23.0985V35.0308C119.278 35.8582 119.293 36.8605 119.325 38.0378C119.373 38.9287 119.508 39.5333 119.731 39.8515C119.954 40.1697 120.288 40.4322 120.733 40.6391V41.6414H113.335C113.128 41.1164 112.985 40.6231 112.906 40.1618C112.826 39.7004 112.762 39.1754 112.715 38.5867C111.776 39.6049 110.694 40.472 109.469 41.1879C108.005 42.0312 106.351 42.4528 104.505 42.4528C102.151 42.4528 100.202 41.7846 98.6584 40.4481C97.131 39.0958 96.3674 37.1866 96.3674 34.7206C96.3674 31.5227 97.6004 29.2078 100.066 27.776C101.419 26.9964 103.407 26.4395 106.033 26.1054L108.347 25.819C109.604 25.6599 110.503 25.4611 111.044 25.2224C112.015 24.8088 112.5 24.1644 112.5 23.2894C112.5 22.2234 112.126 21.4916 111.378 21.0938C110.646 20.6802 109.565 20.4733 108.133 20.4733C106.526 20.4733 105.388 20.8711 104.72 21.6666C104.243 22.2552 103.925 23.0507 103.765 24.0531H97.2026C97.3458 21.778 97.9822 19.9085 99.1118 18.4448ZM104.171 36.7252C104.808 37.2503 105.587 37.5128 106.51 37.5128C107.974 37.5128 109.318 37.0832 110.543 36.2241C111.784 35.3649 112.428 33.7978 112.476 31.5227V28.9931C112.047 29.2635 111.609 29.4863 111.164 29.6613C110.734 29.8204 110.137 29.9715 109.374 30.1147L107.846 30.4011C106.414 30.6556 105.388 30.9659 104.768 31.3318C103.718 31.9523 103.193 32.9148 103.193 34.2194C103.193 35.3809 103.519 36.2161 104.171 36.7252Z" fill="#15181E"/>
<path d="M82.2723 28.9931H74.8026V41.6414H67.5V6.46477H82.8212C86.3532 6.46477 89.1692 7.37163 91.2693 9.18535C93.3694 10.9991 94.4195 13.8072 94.4195 17.6096C94.4195 21.7621 93.3694 24.6974 91.2693 26.4157C89.1692 28.134 86.1702 28.9931 82.2723 28.9931ZM85.7088 21.6666C86.6634 20.8234 87.1407 19.487 87.1407 17.6573C87.1407 15.8277 86.6555 14.5231 85.685 13.7435C84.7304 12.9639 83.386 12.5741 81.6518 12.5741H74.8026V22.9314H81.6518C83.386 22.9314 84.7383 22.5098 85.7088 21.6666Z" fill="#15181E"/>
<path fill-rule="evenodd" clip-rule="evenodd" d="M25 50C38.8071 50 50 38.8071 50 25C50 11.1929 38.8071 0 25 0C11.1929 0 -3.05176e-05 11.1929 -3.05176e-05 25C-3.05176e-05 38.8071 11.1929 50 25 50ZM36.4823 24.4358L34.9225 19.4911L27.9867 21.7478V13.75H22.2455V21.7478L15.3097 19.4911L13.75 24.4358L20.8186 26.6261L16.1725 33.2301L20.4203 36.25L25.1659 30.0111L29.7787 36.25L34.0265 33.2301L29.4137 26.6261L36.4823 24.4358Z" fill="#15181E"/>
</svg>
