<svg viewBox="0 0 16 16" fill="none" xmlns="http://www.w3.org/2000/svg">
<path d="M6.26344 12.9141L6.65307 13.7904C6.7689 14.0513 6.95792 14.2729 7.19722 14.4284C7.43652 14.584 7.71581 14.6668 8.00122 14.6667C8.28663 14.6668 8.56592 14.584 8.80522 14.4284C9.04452 14.2729 9.23354 14.0513 9.34937 13.7904L9.739 12.9141C9.8777 12.6032 10.111 12.3439 10.4057 12.1734C10.7022 12.0023 11.0452 11.9295 11.3857 11.9652L12.339 12.0667C12.6228 12.0967 12.9092 12.0438 13.1635 11.9143C13.4177 11.7848 13.629 11.5843 13.7716 11.3371C13.9144 11.0901 13.9824 10.8069 13.9674 10.522C13.9524 10.237 13.8551 9.96258 13.6871 9.73189L13.1227 8.95634C12.9217 8.67813 12.8143 8.34325 12.816 8.00004C12.816 7.65777 12.9244 7.32427 13.1257 7.04745L13.6901 6.27189C13.858 6.04121 13.9554 5.76675 13.9704 5.48182C13.9854 5.19689 13.9173 4.91373 13.7746 4.66671C13.632 4.41953 13.4207 4.21903 13.1664 4.08953C12.9121 3.96002 12.6257 3.90706 12.342 3.93708L11.3886 4.03856C11.0482 4.07431 10.7052 4.00145 10.4086 3.83041C10.1134 3.65888 9.88001 3.39828 9.74196 3.08597L9.34937 2.20967C9.23354 1.94882 9.04452 1.72718 8.80522 1.57164C8.56592 1.4161 8.28663 1.33333 8.00122 1.33337C7.71581 1.33333 7.43652 1.4161 7.19722 1.57164C6.95792 1.72718 6.7689 1.94882 6.65307 2.20967L6.26344 3.08597C6.1254 3.39828 5.89202 3.65888 5.59678 3.83041C5.30025 4.00145 4.95722 4.07431 4.61678 4.03856L3.66048 3.93708C3.3767 3.90706 3.09031 3.96002 2.83602 4.08953C2.58174 4.21903 2.37049 4.41953 2.22789 4.66671C2.0851 4.91373 2.01708 5.19689 2.03207 5.48182C2.04705 5.76675 2.14441 6.04121 2.31233 6.27189L2.87678 7.04745C3.07807 7.32427 3.18647 7.65777 3.18641 8.00004C3.18647 8.34232 3.07807 8.67581 2.87678 8.95263L2.31233 9.72819C2.14441 9.95887 2.04705 10.2333 2.03207 10.5183C2.01708 10.8032 2.0851 11.0863 2.22789 11.3334C2.37063 11.5804 2.58191 11.7808 2.83615 11.9103C3.0904 12.0398 3.37672 12.0928 3.66048 12.063L4.61381 11.9615C4.95426 11.9258 5.29729 11.9986 5.59381 12.1697C5.89017 12.3407 6.12462 12.6014 6.26344 12.9141Z" stroke="currentColor" stroke-width="1.2" stroke-linecap="round" stroke-linejoin="round"/>
<path d="M8.00003 10C9.1046 10 10 9.10461 10 8.00004C10 6.89547 9.1046 6.00004 8.00003 6.00004C6.89546 6.00004 6.00003 6.89547 6.00003 8.00004C6.00003 9.10461 6.89546 10 8.00003 10Z" stroke="currentColor" stroke-width="1.2" stroke-linecap="round" stroke-linejoin="round"/>
</svg>
