<svg xmlns="http://www.w3.org/2000/svg" viewBox="0 0 16 16" fill="none">
  <path d="M7.14295 1.56366L6.84305 1.044V1.044L7.14295 1.56366ZM8.85713 1.56366L8.55722 2.08333V2.08333L8.85713 1.56366ZM9.49375 2.19538L10.0118 1.89265L10.0101 1.88982L9.49375 2.19538ZM14.6667 11.5376L14.0667 11.5392L14.6667 11.5376ZM14.4327 10.647L14.9555 10.3525L14.9507 10.3443L14.4327 10.647ZM13.8057 13.086L13.4958 12.5722L13.8057 13.086ZM12.9325 13.3333L12.9325 13.9334L12.9393 13.9333L12.9325 13.3333ZM2.19442 13.086L1.88453 13.5998H1.88453L2.19442 13.086ZM3.0612 13.3333L3.05444 13.9333H3.0612L3.0612 13.3333ZM1.56262 12.4294L2.087 12.1378H2.087L1.56262 12.4294ZM1.33338 11.5376L1.93338 11.5392L1.33338 11.5376ZM1.56749 10.6471L1.04939 10.3443L1.04473 10.3526L1.56749 10.6471ZM6.50632 2.19538L5.98995 1.88981L5.98829 1.89266L6.50632 2.19538ZM8.60004 5.33334C8.60004 5.00197 8.33141 4.73334 8.00004 4.73334C7.66867 4.73334 7.40004 5.00197 7.40004 5.33334H8.60004ZM7.40004 8.66668C7.40004 8.99805 7.66867 9.26668 8.00004 9.26668C8.33141 9.26668 8.60004 8.99805 8.60004 8.66668H7.40004ZM8.60004 10.6667C8.60004 10.3353 8.33141 10.0667 8.00004 10.0667C7.66867 10.0667 7.40004 10.3353 7.40004 10.6667H8.60004ZM7.40004 10.7333C7.40004 11.0647 7.66867 11.3333 8.00004 11.3333C8.33141 11.3333 8.60004 11.0647 8.60004 10.7333H7.40004ZM8.00004 0.733343C7.59382 0.733343 7.19529 0.84071 6.84305 1.044L7.44286 2.08333C7.6139 1.98463 7.80574 1.93334 8.00004 1.93334V0.733343ZM9.15704 1.044C8.80479 0.84071 8.40626 0.733343 8.00004 0.733343V1.93334C8.19434 1.93334 8.38619 1.98463 8.55722 2.08333L9.15704 1.044ZM10.0101 1.88982C9.80252 1.53901 9.50917 1.24722 9.15704 1.044L8.55722 2.08333C8.72836 2.1821 8.87353 2.32545 8.97739 2.50094L10.0101 1.88982ZM15.2667 11.5359C15.2656 11.1214 15.1587 10.7134 14.9554 10.3526L13.9099 10.9415C14.0117 11.1223 14.0661 11.3284 14.0667 11.5392L15.2667 11.5359ZM14.9618 12.721C15.1631 12.3591 15.2678 11.9506 15.2667 11.5359L14.0667 11.5392C14.0673 11.7499 14.014 11.9564 13.9131 12.1378L14.9618 12.721ZM14.1156 13.5998C14.4693 13.3864 14.7606 13.083 14.9618 12.721L13.9131 12.1378C13.8122 12.3191 13.6679 12.4684 13.4958 12.5722L14.1156 13.5998ZM12.9456 13.9332C13.3583 13.9286 13.7617 13.8132 14.1156 13.5998L13.4958 12.5722C13.3238 12.676 13.1295 12.7311 12.9321 12.7333L12.9456 13.9332ZM12.9393 13.9333L12.9457 13.9332L12.9321 12.7333L12.9257 12.7334L12.9393 13.9333ZM1.88453 13.5998C2.23833 13.8132 2.64171 13.9286 3.05444 13.9333L3.06796 12.7333C2.87062 12.7311 2.67633 12.676 2.50431 12.5722L1.88453 13.5998ZM1.03824 12.721C1.23953 13.083 1.5308 13.3864 1.88453 13.5998L2.50431 12.5722C2.33221 12.4684 2.18784 12.3191 2.087 12.1378L1.03824 12.721ZM0.733383 11.5359C0.73225 11.9506 0.837007 12.3591 1.03824 12.721L2.087 12.1378C1.98612 11.9564 1.9328 11.7499 1.93338 11.5392L0.733383 11.5359ZM1.04473 10.3526C0.841504 10.7134 0.734516 11.1213 0.733383 11.5359L1.93338 11.5392C1.93395 11.3285 1.98839 11.1224 2.09025 10.9416L1.04473 10.3526ZM6.84305 1.044C6.49092 1.24721 6.19756 1.539 5.98996 1.88982L7.02269 2.50094C7.12653 2.32545 7.27171 2.18211 7.44286 2.08333L6.84305 1.044ZM12.9389 12.7333L3.0612 12.7333L3.0612 13.9333L12.9389 13.9333L12.9389 12.7333ZM12.9325 12.7333L3.0612 12.7333L3.0612 13.9333L12.9325 13.9333L12.9325 12.7333ZM8.97572 2.49811L13.9146 10.9498L14.9507 10.3443L10.0118 1.89266L8.97572 2.49811ZM2.08553 10.9498L7.02436 2.4981L5.98829 1.89266L1.04946 10.3444L2.08553 10.9498ZM7.40004 5.33334V8.66668H8.60004V5.33334H7.40004ZM7.40004 10.6667V10.7333H8.60004V10.6667H7.40004Z" fill="current"/>
</svg>