<svg width="24" height="24" viewBox="0 0 24 24" fill="none" xmlns="http://www.w3.org/2000/svg">
<rect width="24" height="24" rx="12" fill="black"/>
<path fill-rule="evenodd" clip-rule="evenodd" d="M12 18C15.3137 18 18 15.3137 18 12C18 8.68629 15.3137 6 12 6C8.68629 6 6 8.68629 6 12C6 15.3137 8.68629 18 12 18ZM14.7558 11.8646L14.3814 10.6779L12.7168 11.2195V9.3H11.3389V11.2195L9.67434 10.6779L9.3 11.8646L10.9965 12.3903L9.88142 13.9752L10.9009 14.7L12.0398 13.2027L13.1469 14.7L14.1664 13.9752L13.0593 12.3903L14.7558 11.8646Z" fill="white"/>
</svg>
